<svg xmlns="http://www.w3.org/2000/svg" width="32" height="32" viewBox="0 0 32 32"><path d="M12.57,27.74h.87l2.16-3.56V32h.78V24.18l2.17,3.56h.88l-.52-.89-2.08-3.39H15.16l-2.08,3.39ZM19.43,4.26h-.87L16.4,7.82V0h-.78V7.82L13.45,4.26h-.88l.52.89,2.08,3.39h1.67l2.08-3.39ZM4.26,12.57v.87L7.82,15.6H0v.78H7.82L4.26,18.55v.88l.89-.52,3.39-2.08V15.16L5.15,13.08Zm23.48,6.86v-.87L24.18,16.4H32v-.78H24.18l3.56-2.17v-.88l-.89.52-3.39,2.08v1.67l3.39,2.08ZM5.27,21.87l.61.62,4.06-1L7.42,24l-3,3,.55.55,3-3,2.52-2.52-1,4.06.63.62.26-1,.92-3.87L11,21.55,10.44,21l-.31-.32-3.86.93ZM26.73,10.13l-.61-.62-4.06,1L24.58,8l3-3L27,4.42l-3,3L21.51,10l1-4.06-.63-.62-.26,1-.92,3.87.31.31.56.55.31.32,3.86-.93Zm-4.86,16.6.62-.61-1-4.06L24,24.58l3,3,.55-.55-3-3-2.52-2.52,4.06,1,.62-.63-1-.26-3.87-.92-.31.31-.55.56-.32.31.93,3.86ZM10.13,5.27l-.62.61,1,4.06L8,7.42l-3-3L4.42,5l3,3L10,10.49l-4.06-1-.62.63,1,.26,3.87.92.31-.31.55-.56.32-.31-.93-3.86Z"/></svg>